<svg xmlns="http://www.w3.org/2000/svg" viewBox="0 0 64 64">
  <defs>
    <linearGradient id="g" x1="0" y1="0" x2="1" y2="1">
      <stop offset="0" stop-color="#7dd3fc"/>
      <stop offset="1" stop-color="#a78bfa"/>
    </linearGradient>
  </defs>
  <g fill="url(#g)">
    <path d="M32 6a2 2 0 0 1 2 2v10.1l6.6-3.8a2 2 0 1 1 2 3.5L36 21.6l7.4 4.3 6.6-3.8a2 2 0 0 1 2 3.5L47 27.7l7.4 4.3a2 2 0 1 1-2 3.5L45 31.2v1.6l7.4 4.3a2 2 0 1 1-2 3.5L43.4 37l-7.4 4.3 6.6 3.8a2 2 0 1 1-2 3.5L34 44.9V55a2 2 0 1 1-4 0V44.9l-6.6 3.8a2 2 0 1 1-2-3.5l6.6-3.8-7.4-4.3-6.6 3.8a2 2 0 1 1-2-3.5L17 32.8v-1.6l-7.4-4.3a2 2 0 1 1 2-3.5l6.6 3.8L25.6 22l-6.6-3.8a2 2 0 1 1 2-3.5L30 18.1V8a2 2 0 0 1 2-2Zm-7.4 18.9L32 29.2l7.4-4.3L32 20.6l-7.4 4.3Zm0 14.2L32 43.4l7.4-4.3L32 34.8l-7.4 4.3Z"/>
  </g>
</svg>


